<!DOCTYPE svg PUBLIC "-//W3C//DTD SVG 1.1//EN" "http://www.w3.org/Graphics/SVG/1.1/DTD/svg11.dtd">
<!-- Uploaded to: SVG Repo, www.svgrepo.com, Transformed by: SVG Repo Mixer Tools -->
<svg height="800px" width="800px" version="1.1" id="Layer_1" xmlns="http://www.w3.org/2000/svg" xmlns:xlink="http://www.w3.org/1999/xlink" viewBox="0 0 511.999 511.999" xml:space="preserve" fill="#000000">
<g id="SVGRepo_bgCarrier" stroke-width="0"/>
<g id="SVGRepo_tracerCarrier" stroke-linecap="round" stroke-linejoin="round"/>
<g id="SVGRepo_iconCarrier"> <path style="fill:#D7DEED;" d="M263.468,8.001h-15.419c-101.767,0-184.047,73.922-184.047,164.124v1.602v94.021 c0,28.804,16.5,53.104,42.338,63.065l5.662-0.002v70.496c0,56.412,112.835,102.69,132.017,102.69h23.978 c19.182,0,132.003-46.277,132.003-102.69v-70.58l5.627-0.002c25.824-9.964,42.373-34.19,42.373-62.978v-94.021v-1.602 C447.999,81.923,365.234,8.001,263.468,8.001z"/> <path style="fill:#C7CFE2;" d="M144.747,412.888v-79.026l-6.347,0.002c-28.964-11.167-47.46-38.407-47.46-70.695V157.773v-1.796 c0-42.463,16.272-81.704,43.591-112.945c-42.96,30.124-70.53,76.88-70.53,129.094v1.602v94.021c0,28.804,16.5,53.104,42.338,63.065 l5.662-0.002v70.496c0,40.47,58.067,75.72,97.972,92.415C175.938,472.886,144.747,444.289,144.747,412.888z"/> <g> <path style="fill:#707487;" d="M227.724,233.968c0,13.696-14.92,32.428-33.156,41.627l-15.057,7.595 c-18.236,9.198-35.147,0.24-37.578-19.907l-1.377-11.413c-2.431-20.147,12.28-37.757,32.691-39.132l17.366-1.17 C211.023,210.191,227.724,220.271,227.724,233.968z"/> <path style="fill:#707487;" d="M288.62,233.968c0,13.696,14.92,32.428,33.156,41.627l15.057,7.595 c18.236,9.198,35.147,0.24,37.578-19.907l1.377-11.413c2.431-20.147-12.28-37.757-32.691-39.132l-17.366-1.17 C305.32,210.191,288.62,220.271,288.62,233.968z"/> <path style="fill:#707487;" d="M279.67,343.973h-47.675c0-15.882,10.373-67.858,23.762-67.858 C269.147,276.115,279.67,328.091,279.67,343.973z"/> </g> <path d="M263.467,0h-15.419C142.152,0,56,77.216,56,172.125v95.624c0,15.699,4.442,30.591,12.844,43.068 c8.401,12.474,20.371,21.971,34.617,27.462c0.179,0.069,0.359,0.124,0.539,0.18v62.849c0,34.065,34.074,61.944,62.657,79.335 c30.373,18.479,65.148,31.356,77.361,31.356h23.978c12.213,0,46.985-12.877,77.355-31.356c28.581-17.391,62.65-45.271,62.65-79.335 v-62.951c0.169-0.053,0.338-0.102,0.505-0.166c29.295-11.302,47.494-38.294,47.494-70.442v-95.623C456,77.216,369.63,0,263.467,0z M439.997,267.748c0,23.38-12.122,43.265-31.997,53.185v-16.717c0-4.419-3.582-8.001-8.001-8.001c-4.419,0-8.001,3.583-8.001,8.001 v97.093c0,28.034-34.439,53.174-54.966,65.665c-29.591,18.005-61.514,29.025-69.036,29.025h-23.978 c-7.522,0-39.448-11.02-69.043-29.025c-20.53-12.491-54.973-37.631-54.973-65.664v-97.093c0-4.419-3.582-8.001-8.001-8.001 c-4.419,0-8.001,3.583-8.001,8.001v16.823c-19.874-9.907-31.997-29.835-31.997-53.29v-95.623 c0.001-86.088,78.974-156.124,176.047-156.124h15.419c97.339,0,176.53,70.036,176.53,156.122V267.748z M133.988,264.241 c1.47,12.184,7.645,22.028,16.941,27.007c4.406,2.359,9.336,3.536,14.477,3.536c5.784,0,11.835-1.487,17.707-4.449l15.058-7.595 c21.058-10.622,37.554-32.045,37.554-48.771c0-7.194-3.038-13.838-8.788-19.213c-8.531-7.976-22.312-12.155-36.864-11.171 l-17.366,1.17c-12.141,0.818-23.02,6.33-30.631,15.521c-7.539,9.103-10.901,20.665-9.467,32.554L133.988,264.241z M154.402,230.481 c4.782-5.774,11.666-9.24,19.382-9.761l17.366-1.17c1.044-0.07,2.082-0.105,3.111-0.105c8.88,0,17.022,2.58,21.749,6.999 c2.464,2.304,3.715,4.836,3.715,7.523c0,9.449-11.811,25.934-28.759,34.483l-15.058,7.594c-6.466,3.262-12.653,3.65-17.422,1.096 c-4.703-2.519-7.76-7.781-8.609-14.817l-1.377-11.412C147.594,243.424,149.691,236.169,154.402,230.481z M343.636,204.754 l-17.365-1.17c-14.555-0.98-28.333,3.196-36.864,11.171c-5.75,5.375-8.788,12.019-8.788,19.213 c0,16.727,16.496,38.149,37.555,48.771l15.057,7.594c5.873,2.962,11.923,4.45,17.707,4.45c5.141,0,10.072-1.175,14.477-3.536 c9.296-4.98,15.47-14.823,16.942-27.006l1.377-11.413c1.435-11.89-1.927-23.451-9.467-32.554 C366.655,211.084,355.778,205.572,343.636,204.754z M367.846,250.911l-1.378,11.413c-0.849,7.036-3.907,12.298-8.609,14.817 c-4.771,2.554-10.956,2.165-17.421-1.096l-15.058-7.595c-16.948-8.548-28.759-25.034-28.759-34.483c0-2.688,1.25-5.219,3.715-7.523 c4.727-4.419,12.868-6.999,21.749-6.999c1.028,0,2.066,0.035,3.11,0.105l17.365,1.17c7.716,0.52,14.6,3.987,19.382,9.761 C366.653,236.169,368.75,243.424,367.846,250.911z M223.994,343.973c0,4.42,3.583,8.001,8.001,8.001h47.674 c4.42,0,8.001-3.582,8.001-8.001c0-9.622-3.116-27.717-7.246-42.094c-6.62-23.036-14.458-33.765-24.668-33.765 c-10.216,0-18.032,10.735-24.597,33.783C227.075,316.238,223.994,334.327,223.994,343.973z M245.659,309.534 c4.09-15.52,8.067-22.396,10.104-24.728c2.045,2.328,6.046,9.202,10.178,24.729c2.551,9.588,4.297,19.275,5.143,26.435h-30.508 C241.409,328.802,243.135,319.11,245.659,309.534z M379.903,337.867c1.409,4.189-0.845,8.725-5.034,10.134l-38.869,13.071v22.344 c0.014,0.192,0.021,0.387,0.021,0.582c0,10.282-6.174,19.19-17.385,25.083c-8.364,4.397-19.118,6.919-29.504,6.919h-68.001 c-22.428,0-45.132-11.169-45.132-32.514V361.08l-39.054-13.076c-4.191-1.403-6.45-5.937-5.047-10.128 c1.403-4.191,5.936-6.452,10.128-5.047l44.515,14.904c3.262,1.092,5.461,4.148,5.461,7.587v28.165c0,5.002,3.288,8.794,7.997,11.476 v-2.962c0-4.419,3.583-8.001,8.001-8.001c4.419,0,8.001,3.583,8.001,8.001v7.71c1.763,0.191,3.493,0.288,5.13,0.288h10.868v-7.998 c0-4.419,3.582-8.001,8.001-8.001c4.419,0,8.001,3.583,8.001,8.001v7.998h15.998v-7.998c0-4.419,3.582-8.001,8.001-8.001 c4.419,0,8.001,3.583,8.001,8.001v7.998h9.132c2.27,0,4.582-0.159,6.866-0.463v-7.535c0-4.419,3.583-8.001,8.001-8.001 c4.419,0,8.001,3.583,8.001,8.001v2.519c4.665-2.641,7.805-6.106,8.007-10.107c-0.007-0.137-0.011-0.274-0.011-0.413v-28.678 c0-3.437,2.193-6.489,5.451-7.584l44.32-14.904C373.958,331.425,378.495,333.679,379.903,337.867z M289.191,41.698 c0.853-4.336,5.061-7.156,9.396-6.307c9.587,1.885,19.062,4.585,28.163,8.023c4.134,1.562,6.219,6.179,4.657,10.313 c-1.209,3.203-4.254,5.175-7.486,5.175c-0.939,0-1.895-0.167-2.826-0.519c-8.269-3.125-16.881-5.578-25.594-7.291 C291.162,50.24,288.339,46.034,289.191,41.698z M401.001,100.088c2.517,3.632,1.613,8.617-2.018,11.134 c-1.39,0.963-2.978,1.425-4.551,1.425c-2.535,0-5.029-1.202-6.583-3.444c-5.743-8.286-12.66-16.056-20.559-23.09 c-6.821-6.074-14.319-11.548-22.286-16.27c-3.802-2.253-5.057-7.161-2.804-10.963c2.252-3.802,7.162-5.056,10.963-2.804 c8.848,5.244,17.183,11.329,24.769,18.086C386.776,82.039,394.537,90.762,401.001,100.088z"/> </g>
</svg>