<!DOCTYPE svg PUBLIC "-//W3C//DTD SVG 1.1//EN" "http://www.w3.org/Graphics/SVG/1.1/DTD/svg11.dtd">
<!-- Uploaded to: SVG Repo, www.svgrepo.com, Transformed by: SVG Repo Mixer Tools -->
<svg version="1.1" id="Icons" xmlns="http://www.w3.org/2000/svg" xmlns:xlink="http://www.w3.org/1999/xlink" viewBox="0 0 32 32" xml:space="preserve" width="800px" height="800px" fill="#ffffff" stroke="#ffffff">
<g id="SVGRepo_bgCarrier" stroke-width="0"/>
<g id="SVGRepo_tracerCarrier" stroke-linecap="round" stroke-linejoin="round"/>
<g id="SVGRepo_iconCarrier"> <style type="text/css"> .st0{fill:none;stroke:#ffffff;stroke-width:2;stroke-linecap:round;stroke-linejoin:round;stroke-miterlimit:10;} </style> <path class="st0" d="M22,6H10C8.3,6,7,4.7,7,3v0h18v0C25,4.7,23.7,6,22,6z"/> <path class="st0" d="M10,26h12c1.7,0,3,1.3,3,3v0H7v0C7,27.3,8.3,26,10,26z"/> <path class="st0" d="M23,26v-4c0-0.6-0.3-1.2-0.8-1.6l-3.7-2.8c-1.1-0.8-1.1-2.4,0-3.2l3.7-2.8c0.5-0.4,0.8-1,0.8-1.6V6"/> <path class="st0" d="M9,6v4c0,0.6,0.3,1.2,0.8,1.6l3.7,2.8c1.1,0.8,1.1,2.4,0,3.2l-3.7,2.8C9.3,20.8,9,21.4,9,22v4"/> <polygon class="st0" points="11,26 16,21 21,26 "/> <polygon class="st0" points="16,12 13,10 19,10 "/> </g>
</svg>